{"glyphs":{":":{"x_min":0,"x_max":358,"ha":358,"o":"m 213 379 q 177 379 154 396 q 132 414 132 451 q 132 492 156 516 q 179 541 219 541 q 254 541 277 524 q 300 506 300 469 q 300 419 272 399 q 244 379 213 379 z m 125 -8 q 89 -8 66 10 q 44 27 44 64 q 44 104 68 129 q 91 154 131 154 q 166 154 189 136 q 212 119 212 82 q 212 32 184 12 q 156 -8 125 -8 z"},"$":{"x_min":0,"x_max":559,"ha":559,"o":"m 181 -79 l 206 38 q 115 46 70 81 q 25 116 25 172 q 25 219 54 240 q 84 262 136 262 q 136 192 159 154 q 182 116 219 102 l 264 315 q 193 352 155 395 q 117 438 117 507 q 117 590 180 637 q 242 684 344 687 l 360 760 l 416 760 l 399 685 q 478 679 518 652 q 557 624 557 584 q 557 544 532 520 q 508 497 444 497 q 444 533 430 570 q 417 607 386 623 l 344 426 l 367 414 q 436 378 470 335 q 503 292 503 235 q 503 143 438 91 q 372 39 261 37 l 237 -79 z m 294 456 l 331 630 q 296 626 271 604 q 246 583 246 540 q 246 512 258 492 q 270 473 294 456 z m 273 94 q 320 95 348 122 q 375 149 375 190 q 375 217 364 238 q 352 260 314 286 z"},"?":{"x_min":0,"x_max":535,"ha":535,"o":"m 199 228 l 197 352 q 286 384 339 431 q 392 478 392 560 q 392 610 372 636 q 351 663 320 663 q 288 663 269 642 q 250 622 239 588 q 228 555 224 517 q 101 517 101 594 q 101 630 129 660 q 157 689 209 706 q 261 724 332 724 q 432 724 490 684 q 548 644 548 558 q 548 500 516 455 q 483 410 426 376 q 370 342 299 317 l 265 228 z m 207 -8 q 171 -8 148 10 q 126 27 126 64 q 126 104 150 129 q 173 154 213 154 q 248 154 271 136 q 294 119 294 82 q 294 32 266 12 q 238 -8 207 -8 z"},"<":{"x_min":0,"x_max":559,"ha":559,"o":"m 494 104 l 65 337 l 65 378 l 494 612 l 494 533 l 172 357 l 494 183 z"},"'":{"x_min":0,"x_max":290,"ha":290,"o":"m 152 439 l 166 714 l 322 714 l 218 439 z"},"=":{"x_min":0,"x_max":559,"ha":559,"o":"m 63 419 l 63 489 l 496 489 l 496 419 z m 63 225 l 63 295 l 496 295 l 496 225 z"},"a":{"x_min":0,"x_max":665,"ha":665,"o":"m 183 -10 q 136 -10 104 14 q 72 38 56 80 q 40 121 40 173 q 40 220 53 272 q 66 323 92 372 q 118 420 156 460 q 194 499 244 522 q 293 546 354 546 q 393 546 432 535 q 472 524 495 511 l 548 535 l 601 535 l 535 223 q 532 212 528 192 q 524 172 521 152 q 518 131 518 118 q 518 93 528 81 q 537 69 553 69 q 567 69 580 75 q 593 81 609 90 l 631 50 q 606 30 566 10 q 527 -10 473 -10 q 429 -10 402 10 q 375 31 375 70 q 375 99 382 135 l 375 135 q 350 88 324 56 q 299 24 266 7 q 232 -10 183 -10 z m 246 70 q 268 70 291 88 q 314 107 335 138 q 356 170 372 209 q 389 248 397 288 l 432 454 q 422 468 405 475 q 388 482 368 482 q 333 482 305 461 q 277 440 256 405 q 235 370 220 329 q 206 288 199 246 q 192 205 192 172 q 192 114 208 92 q 223 70 246 70 z"},"L":{"x_min":0,"x_max":654,"ha":654,"o":"m -23 0 l -12 53 l 1 53 q 32 53 58 64 q 85 74 93 113 l 195 593 q 201 620 201 627 q 201 649 180 655 q 160 661 129 661 l 116 661 l 127 714 l 472 714 l 461 661 l 448 661 q 415 661 388 650 q 361 640 353 600 l 240 61 l 407 61 q 462 61 490 88 q 517 115 536 170 l 554 223 l 618 223 l 563 0 z"},"3":{"x_min":0,"x_max":559,"ha":559,"o":"m 210 -10 q 132 -10 86 8 q 40 27 20 55 q -1 83 -1 111 q -1 150 28 173 q 57 196 109 196 q 109 138 136 100 q 164 61 223 61 q 256 61 286 78 q 316 96 334 131 q 353 166 353 218 q 353 275 316 306 q 279 338 212 338 l 169 338 l 179 400 l 211 400 q 267 400 311 422 q 355 444 380 484 q 406 524 406 577 q 406 614 390 638 q 373 663 337 663 q 300 663 278 642 q 255 621 242 588 q 230 554 223 514 q 175 514 142 528 q 110 541 110 578 q 110 619 143 652 q 176 685 232 704 q 287 724 355 724 q 447 724 504 686 q 560 649 560 581 q 560 534 538 491 q 515 448 470 416 q 426 384 359 372 q 428 364 468 327 q 509 290 509 225 q 509 159 482 114 q 455 68 410 41 q 366 14 314 2 q 261 -10 210 -10 z"},";":{"x_min":0,"x_max":358,"ha":358,"o":"m 213 379 q 177 379 154 396 q 132 414 132 451 q 132 492 156 516 q 179 541 219 541 q 254 541 277 524 q 300 506 300 469 q 300 419 272 399 q 244 379 213 379 z m -11 -151 l 0 -98 q 103 -74 103 -15 q 103 1 94 10 q 86 20 75 28 q 64 37 56 50 q 47 62 47 84 q 47 116 70 134 q 92 153 122 153 q 158 153 184 130 q 209 106 209 62 q 209 -14 154 -72 q 98 -130 -11 -151 z"},"J":{"x_min":0,"x_max":401,"ha":401,"o":"m -76 -240 q -103 -240 -122 -237 q -140 -234 -158 -229 l -144 -174 q -131 -178 -112 -180 q -94 -183 -79 -183 q -27 -183 10 -144 q 46 -104 68 -3 l 197 604 q 201 618 201 627 q 201 649 180 655 q 160 661 129 661 l 116 661 l 127 714 l 472 714 l 461 661 l 448 661 q 415 661 388 650 q 361 640 353 600 l 226 -3 q 209 -84 164 -136 q 118 -189 55 -214 q -8 -240 -76 -240 z"},"V":{"x_min":0,"x_max":698,"ha":698,"o":"m 245 0 l 161 613 q 156 644 140 652 q 123 661 98 661 l 85 661 l 96 714 l 426 714 l 415 661 l 392 661 q 360 661 341 653 q 322 645 322 621 q 322 613 322 604 q 323 594 324 587 l 356 323 q 359 300 360 268 q 362 235 363 204 q 364 174 364 156 q 376 183 389 214 q 402 245 410 260 l 590 583 q 608 615 608 636 q 608 651 593 656 q 578 661 550 661 l 527 661 l 537 714 l 798 714 l 787 661 l 763 661 q 744 661 731 656 q 718 652 706 638 q 694 623 678 594 l 345 0 z"},"\"":{"x_min":0,"x_max":508,"ha":508,"o":"m 152 439 l 176 714 l 332 714 l 218 439 z m 370 439 l 394 714 l 550 714 l 436 439 z"},"7":{"x_min":0,"x_max":559,"ha":559,"o":"m 104 0 l 499 605 l 242 605 q 187 605 173 554 l 159 504 l 98 504 l 139 714 l 616 714 l 605 655 l 189 0 z"},"S":{"x_min":0,"x_max":586,"ha":586,"o":"m 261 -10 q 137 -10 76 32 q 14 74 14 136 q 14 183 50 206 q 87 230 144 230 q 144 138 181 94 q 218 51 277 51 q 333 51 364 80 q 396 110 396 154 q 396 182 386 204 q 376 226 350 248 q 323 270 273 298 q 195 341 155 391 q 115 441 115 520 q 115 580 147 626 q 179 672 237 698 q 295 724 374 724 q 485 724 540 692 q 595 659 595 612 q 595 572 564 548 q 534 525 464 525 q 464 555 456 587 q 447 619 426 641 q 404 663 365 663 q 338 663 313 652 q 288 641 272 618 q 255 595 255 560 q 255 525 270 502 q 284 480 314 461 q 344 442 388 417 q 464 376 500 326 q 536 277 536 213 q 536 106 462 48 q 387 -10 261 -10 z"},"}":{"x_min":0,"x_max":442,"ha":442,"o":"m -54 -124 l -43 -71 l -4 -71 q 39 -71 58 -46 q 76 -21 87 26 l 124 196 q 134 241 166 270 q 197 300 258 313 l 260 321 q 172 344 172 411 q 172 424 175 439 l 212 610 q 215 623 216 634 q 217 645 217 655 q 217 680 204 694 q 192 708 161 708 l 122 708 l 134 761 l 229 761 q 300 761 336 732 q 372 703 372 652 q 372 643 370 629 q 369 615 362 582 l 332 442 q 329 427 329 415 q 329 375 358 362 q 386 350 428 348 l 415 287 q 366 286 328 268 q 291 250 279 194 l 243 22 q 227 -53 182 -88 q 137 -124 41 -124 z"},"Z":{"x_min":0,"x_max":666,"ha":666,"o":"m -2 0 l 7 50 l 500 653 l 326 653 q 281 653 254 632 q 226 612 213 566 l 196 508 l 124 508 l 173 714 l 705 714 l 695 663 l 201 61 l 407 61 q 453 61 486 86 q 520 110 538 170 l 549 206 l 621 206 l 573 0 z"},"x":{"x_min":0,"x_max":604,"ha":604,"o":"m -20 0 l -10 53 l 3 53 q 22 53 36 58 q 51 62 68 76 q 84 90 109 117 l 235 256 l 166 422 q 150 460 134 472 q 118 483 90 483 l 78 483 l 88 536 l 276 536 l 346 346 l 485 536 l 607 536 l 597 483 l 579 483 q 560 483 545 477 q 530 471 514 456 q 498 440 475 411 l 372 292 l 445 124 q 463 82 479 68 q 495 53 524 53 l 537 53 l 527 0 l 333 0 l 258 202 l 102 0 z"},")":{"x_min":0,"x_max":400,"ha":400,"o":"m -44 -138 l -34 -75 q 28 -41 72 14 q 116 69 145 135 q 174 201 190 268 q 207 335 214 394 q 221 454 221 495 q 221 556 202 615 q 183 674 134 709 l 147 773 q 228 745 278 696 q 328 647 352 584 q 375 520 375 448 q 375 355 350 262 q 324 168 272 86 q 220 5 141 -54 q 62 -113 -44 -138 z"},"&":{"x_min":0,"x_max":801,"ha":801,"o":"m 268 -10 q 188 -10 136 14 q 84 39 59 82 q 34 125 34 178 q 34 244 64 286 q 94 328 144 355 q 194 382 252 404 q 230 442 218 480 q 205 517 205 552 q 205 638 264 681 q 322 724 429 724 q 521 724 564 686 q 607 649 607 594 q 607 548 588 516 q 569 484 526 458 q 484 431 412 402 l 535 240 q 552 276 564 314 q 576 352 584 388 l 592 426 l 792 426 l 781 373 l 772 373 q 738 373 707 362 q 676 351 653 306 q 638 277 621 244 q 604 211 582 177 l 645 94 q 675 53 738 53 l 745 53 l 734 0 l 542 0 l 492 69 q 451 34 396 12 q 341 -10 268 -10 z m 379 450 q 440 476 466 505 q 493 534 493 580 q 493 620 475 642 q 457 664 422 664 q 387 664 364 637 q 340 610 340 560 q 340 532 350 506 q 360 479 379 450 z m 299 57 q 346 57 384 75 q 422 93 453 123 l 290 349 q 231 316 206 278 q 181 239 181 186 q 181 130 212 94 q 243 57 299 57 z"},"_":{"x_min":0,"x_max":459,"ha":459,"o":"m -91 -142 l -78 -83 l 390 -83 l 377 -142 z"},"v":{"x_min":0,"x_max":586,"ha":586,"o":"m 166 -9 l 95 430 q 90 462 72 472 q 55 483 26 483 l 16 483 l 28 536 l 224 536 l 270 240 q 278 190 281 150 q 284 110 286 85 l 289 85 q 334 132 374 187 q 413 242 438 296 q 462 349 462 390 q 462 424 443 440 q 424 455 396 455 q 396 496 418 520 q 441 545 479 545 q 510 545 532 524 q 554 502 554 452 q 554 405 536 354 q 519 303 490 252 q 461 201 427 154 q 393 107 359 68 q 325 28 298 1 z"},"O":{"x_min":0,"x_max":792,"ha":792,"o":"m 342 -11 q 263 -11 200 20 q 137 52 100 114 q 63 176 63 266 q 63 324 80 387 q 97 450 132 510 q 166 570 217 618 q 268 667 336 696 q 404 725 489 725 q 562 725 625 696 q 688 667 726 606 q 765 546 765 450 q 765 395 748 332 q 732 269 698 208 q 665 148 614 98 q 564 48 496 18 q 428 -11 342 -11 z m 362 55 q 412 55 451 83 q 490 111 518 157 q 547 203 566 258 q 585 314 594 370 q 603 426 603 473 q 603 570 564 615 q 526 660 468 660 q 418 660 379 632 q 340 604 311 558 q 282 512 264 456 q 245 401 236 345 q 226 289 226 242 q 226 144 266 100 q 305 55 362 55 z"},"(":{"x_min":0,"x_max":400,"ha":400,"o":"m 270 -139 q 190 -111 140 -62 q 89 -13 66 50 q 42 114 42 186 q 42 279 68 372 q 93 466 145 548 q 197 629 276 688 q 355 747 461 772 l 451 709 q 389 675 345 620 q 301 565 272 499 q 243 433 226 366 q 210 299 203 240 q 196 180 196 139 q 196 78 215 19 q 234 -40 283 -75 z"},"C":{"x_min":0,"x_max":668,"ha":668,"o":"m 366 -10 q 223 -10 143 60 q 63 131 63 259 q 63 349 94 433 q 126 517 184 584 q 242 650 324 689 q 405 728 505 728 q 605 728 654 696 q 703 663 703 609 q 703 566 663 542 q 623 519 562 519 q 562 540 559 565 q 556 590 548 612 q 539 635 522 650 q 505 664 477 664 q 430 664 391 638 q 352 613 322 570 q 292 528 271 474 q 250 420 240 363 q 229 306 229 253 q 229 168 272 121 q 316 74 402 74 q 471 74 514 102 q 557 131 582 165 q 588 160 594 151 q 599 142 599 131 q 599 98 572 66 q 545 33 494 12 q 442 -10 366 -10 z"},"W":{"x_min":0,"x_max":1067,"ha":1067,"o":"m 216 0 l 162 613 q 159 644 142 652 q 124 661 99 661 l 86 661 l 97 714 l 424 714 l 413 661 l 390 661 q 358 661 339 653 q 320 645 320 621 q 320 613 320 602 q 321 591 322 577 l 341 328 q 342 310 344 279 q 346 248 348 215 q 349 182 349 161 q 360 190 374 220 q 387 250 402 279 l 625 707 l 698 707 l 755 325 q 762 278 767 234 q 772 191 772 159 q 783 193 804 244 q 826 296 848 344 l 959 583 q 974 615 974 636 q 974 651 961 656 q 948 661 919 661 l 896 661 l 906 714 l 1167 714 l 1156 661 l 1132 661 q 1103 661 1086 647 q 1068 633 1046 588 l 766 0 l 652 0 l 583 477 l 340 0 z"},"A":{"x_min":0,"x_max":753,"ha":753,"o":"m -49 0 l -38 53 l -17 53 q 2 53 14 60 q 27 66 40 83 q 54 100 72 131 l 411 714 l 548 714 l 632 125 q 636 94 649 74 q 662 53 693 53 l 711 53 l 700 0 l 370 0 l 381 53 l 404 53 q 436 53 455 63 q 474 73 474 95 q 474 103 474 112 q 473 120 472 127 l 459 235 l 215 235 l 165 145 q 146 110 146 89 q 146 53 202 53 l 222 53 l 211 0 z m 347 473 l 249 296 l 452 296 l 432 464 q 428 508 424 542 q 420 577 419 613 q 409 589 399 569 q 389 549 376 526 q 364 504 347 473 z"},"f":{"x_min":0,"x_max":404,"ha":404,"o":"m -78 -240 q -93 -240 -111 -238 q -129 -235 -139 -232 l -127 -174 q -119 -176 -106 -178 q -92 -181 -81 -181 q -48 -181 -26 -166 q -3 -150 14 -113 q 31 -76 45 -9 l 146 468 l 55 468 l 65 515 l 161 536 l 169 573 q 192 672 248 721 q 305 770 406 770 q 483 770 523 745 q 563 720 563 683 q 563 650 534 632 q 504 613 448 613 q 448 651 438 681 q 429 711 402 711 q 370 711 353 684 q 336 656 326 600 l 313 536 l 439 536 l 425 468 l 298 468 l 203 21 q 186 -59 156 -110 q 125 -161 86 -190 q 47 -218 4 -229 q -38 -240 -78 -240 z"},"Q":{"x_min":0,"x_max":787,"ha":787,"o":"m 482 -240 q 422 -240 374 -216 q 327 -192 298 -140 q 270 -88 268 -3 q 177 16 120 84 q 62 152 62 266 q 62 324 79 387 q 96 450 130 510 q 165 570 216 618 q 267 667 335 696 q 403 725 488 725 q 562 725 624 696 q 687 667 726 606 q 764 546 764 450 q 764 389 744 319 q 724 249 683 184 q 642 118 580 69 q 519 20 436 0 q 438 -74 452 -113 q 466 -152 488 -167 q 511 -182 538 -182 q 548 -182 556 -181 q 563 -180 567 -179 l 574 -225 q 554 -232 532 -236 q 511 -240 482 -240 z m 361 55 q 411 55 450 83 q 489 111 518 157 q 546 203 565 258 q 584 314 593 370 q 602 426 602 473 q 602 570 564 615 q 526 660 467 660 q 417 660 378 632 q 339 604 310 558 q 281 512 262 456 q 244 401 234 345 q 225 289 225 242 q 225 144 264 100 q 304 55 361 55 z"},"w":{"x_min":0,"x_max":875,"ha":875,"o":"m 468 -10 q 468 36 468 93 q 467 150 466 207 q 464 264 462 314 q 461 363 459 394 q 420 302 370 202 q 319 101 253 3 l 122 -6 l 112 410 q 111 456 92 470 q 72 483 43 483 l 37 483 l 53 536 l 246 536 q 250 468 252 404 q 255 339 256 272 q 258 204 258 125 l 265 125 q 314 204 364 310 q 414 417 457 527 l 579 531 q 582 501 586 456 q 589 411 592 360 q 595 308 597 258 q 599 209 600 170 q 602 130 602 110 l 609 110 q 668 182 700 236 q 732 291 745 332 q 758 374 758 407 q 758 437 742 454 q 727 470 708 475 q 711 513 732 530 q 754 546 782 546 q 815 546 834 524 q 852 502 852 461 q 852 409 830 352 q 808 294 771 234 q 734 174 687 115 q 640 56 590 1 z"},"-":{"x_min":0,"x_max":310,"ha":310,"o":"m 10 220 l 33 325 l 293 325 l 270 220 z"},"E":{"x_min":0,"x_max":633,"ha":633,"o":"m -23 0 l -12 53 l 1 53 q 32 53 58 64 q 85 74 93 113 l 197 604 q 201 618 201 627 q 201 649 180 655 q 160 661 129 661 l 116 661 l 127 714 l 670 714 l 635 528 l 564 528 q 564 532 566 546 q 567 559 568 572 q 569 584 569 586 q 569 614 553 634 q 537 653 498 653 l 365 653 l 312 403 l 539 403 l 526 343 l 299 343 l 239 61 l 397 61 q 444 61 471 86 q 498 110 510 143 l 526 186 l 597 186 l 551 0 z"},"s":{"x_min":0,"x_max":514,"ha":514,"o":"m 206 -10 q 120 -10 68 19 q 17 48 17 100 q 17 131 32 150 q 48 168 73 176 q 98 185 124 185 q 124 150 134 119 q 143 88 165 69 q 187 50 223 50 q 264 50 292 70 q 319 89 319 125 q 319 160 292 180 q 264 200 206 228 q 148 256 113 292 q 78 328 78 387 q 78 460 138 503 q 199 546 304 546 q 372 546 412 532 q 452 519 470 498 q 487 476 487 452 q 487 412 456 394 q 425 376 372 376 q 372 402 364 428 q 357 455 340 472 q 324 490 295 490 q 256 490 234 470 q 211 449 211 420 q 211 387 238 368 q 266 349 324 323 q 388 294 418 257 q 449 220 449 164 q 449 83 388 36 q 326 -10 206 -10 z"},">":{"x_min":0,"x_max":559,"ha":559,"o":"m 65 104 l 65 183 l 387 357 l 65 533 l 65 612 l 494 378 l 494 337 z"},"l":{"x_min":0,"x_max":354,"ha":354,"o":"m 169 -10 q 112 -10 81 18 q 50 45 50 93 q 50 114 54 144 q 58 174 66 212 l 153 622 q 156 635 158 648 q 160 661 160 665 q 160 692 148 700 q 136 707 107 707 l 86 707 l 95 760 l 337 760 l 218 211 q 212 184 208 160 q 204 136 204 115 q 204 70 239 70 q 255 70 268 76 q 281 82 298 93 l 322 59 q 298 34 261 12 q 224 -10 169 -10 z"},"8":{"x_min":0,"x_max":559,"ha":559,"o":"m 247 -10 q 177 -10 124 12 q 72 34 42 73 q 13 112 13 162 q 13 218 39 254 q 65 291 110 316 q 154 340 210 362 q 167 394 140 440 q 114 486 114 539 q 114 589 140 631 q 165 673 220 698 q 276 724 367 724 q 462 724 514 682 q 567 641 567 578 q 567 528 546 492 q 524 457 486 431 q 448 405 399 383 q 451 350 486 306 q 520 263 520 202 q 520 129 485 82 q 450 35 388 12 q 327 -10 247 -10 z m 337 414 q 395 444 418 484 q 441 523 441 571 q 441 612 422 639 q 402 666 362 666 q 316 666 284 633 q 252 600 252 544 q 252 466 337 414 z m 255 48 q 308 48 346 80 q 384 111 384 174 q 384 223 355 258 q 326 292 270 324 q 213 301 180 260 q 148 220 148 158 q 148 107 176 78 q 205 48 255 48 z"},"\\":{"x_min":0,"x_max":288,"ha":288,"o":"m 162 -121 l 108 760 l 178 760 l 232 -121 z"},"e":{"x_min":0,"x_max":535,"ha":535,"o":"m 263 -10 q 202 -10 152 12 q 101 35 70 81 q 40 127 40 197 q 40 253 62 314 q 84 375 127 428 q 170 480 233 513 q 296 546 379 546 q 450 546 490 515 q 530 484 530 428 q 530 374 492 328 q 453 282 386 254 q 318 225 232 225 l 195 225 q 194 215 194 205 q 193 195 193 187 q 193 129 220 98 q 247 66 302 66 q 351 66 389 92 q 427 117 448 147 q 461 131 461 104 q 461 80 440 54 q 419 27 376 8 q 332 -10 263 -10 z m 202 282 l 211 282 q 260 282 300 299 q 340 316 363 348 q 386 379 386 421 q 386 452 373 469 q 360 486 337 486 q 304 486 276 455 q 249 424 230 377 q 210 330 202 282 z"},"b":{"x_min":0,"x_max":623,"ha":623,"o":"m 261 -10 q 220 -10 186 1 q 153 12 134 26 l 77 -3 l 21 -3 l 154 622 q 157 635 159 648 q 161 661 161 665 q 161 692 148 700 q 136 707 108 707 l 85 707 l 95 760 l 337 760 l 297 570 q 294 556 286 532 q 279 508 270 482 q 261 456 254 434 q 246 412 242 401 l 247 401 q 283 474 327 510 q 371 546 437 546 q 501 546 542 500 q 583 454 583 365 q 583 304 561 238 q 539 173 498 116 q 456 60 396 25 q 337 -10 261 -10 z m 256 54 q 291 54 319 76 q 347 97 368 132 q 389 166 403 206 q 417 247 424 287 q 431 327 431 358 q 431 417 416 442 q 400 466 378 466 q 350 466 326 443 q 301 420 282 387 q 262 354 249 322 q 236 290 232 271 l 191 82 q 202 70 218 62 q 235 54 256 54 z"},"%":{"x_min":0,"x_max":896,"ha":896,"o":"m 213 280 q 148 280 110 318 q 72 355 72 426 q 72 473 86 525 q 99 577 127 622 q 155 667 198 696 q 242 724 302 724 q 378 724 412 682 q 447 639 447 575 q 447 532 434 481 q 420 430 392 384 q 363 339 318 310 q 274 280 213 280 z m 179 0 l 675 714 l 750 714 l 257 0 z m 224 331 q 253 331 276 359 q 298 387 313 428 q 328 470 336 513 q 343 556 343 586 q 343 626 334 648 q 324 671 299 672 q 270 672 248 644 q 225 616 210 574 q 195 533 188 490 q 180 448 180 418 q 180 378 190 354 q 200 331 224 331 z m 628 -10 q 564 -10 526 28 q 487 65 487 136 q 487 183 500 235 q 514 287 542 332 q 570 377 614 406 q 657 434 717 434 q 793 434 828 392 q 862 349 862 285 q 862 242 848 191 q 835 140 806 94 q 778 49 734 20 q 689 -10 628 -10 z m 639 41 q 668 41 690 69 q 713 97 728 138 q 743 180 750 223 q 758 266 758 296 q 758 336 748 358 q 739 381 714 382 q 685 382 662 354 q 640 326 625 284 q 610 243 602 200 q 595 158 595 128 q 595 88 605 64 q 615 41 639 41 z"},"m":{"x_min":0,"x_max":969,"ha":969,"o":"m 800 -7 q 743 -7 712 20 q 681 48 681 96 q 681 117 685 147 q 689 177 697 215 l 714 294 q 718 314 725 348 q 732 381 732 406 q 732 425 724 444 q 717 463 692 463 q 668 463 644 440 q 621 416 600 380 q 580 344 566 306 q 551 268 546 239 l 538 197 q 534 176 528 139 q 523 102 518 64 q 514 25 512 0 l 357 0 q 359 26 365 67 q 371 108 378 150 q 386 192 393 223 l 408 293 q 417 336 421 364 q 425 391 425 405 q 425 423 420 442 q 414 460 392 460 q 367 460 343 438 q 319 417 298 384 q 278 350 264 314 q 249 279 243 251 l 187 0 l 37 0 l 121 398 q 123 407 126 420 q 128 434 128 441 q 128 468 116 476 q 104 483 75 483 l 57 483 l 66 536 l 298 536 l 279 434 l 286 434 q 326 495 370 520 q 415 546 474 546 q 535 546 558 514 q 582 482 584 435 l 584 429 l 590 429 q 627 489 672 519 q 716 549 780 549 q 842 549 866 514 q 890 480 890 434 q 890 408 884 378 q 877 347 872 321 l 849 214 q 843 187 839 163 q 835 139 835 118 q 835 73 870 73 q 886 73 899 79 q 912 85 929 96 l 953 62 q 929 36 892 14 q 855 -7 800 -7 z"},"#":{"x_min":0,"x_max":559,"ha":559,"o":"m 69 0 l 128 200 l 28 200 l 35 269 l 148 269 l 202 450 l 86 450 l 94 520 l 223 520 l 278 714 l 350 714 l 294 520 l 398 520 l 455 714 l 526 714 l 469 520 l 565 520 l 557 450 l 448 450 l 395 269 l 506 269 l 499 200 l 374 200 l 316 0 l 245 0 l 303 200 l 199 200 l 140 0 z m 219 269 l 324 269 l 378 450 l 273 450 z"},",":{"x_min":0,"x_max":304,"ha":304,"o":"m -16 -151 l -5 -98 q 98 -74 98 -15 q 98 1 90 10 q 81 20 70 28 q 59 37 50 50 q 42 62 42 84 q 42 116 64 134 q 87 153 117 153 q 153 153 178 130 q 204 106 204 62 q 204 -14 149 -72 q 94 -130 -16 -151 z"},"n":{"x_min":0,"x_max":672,"ha":672,"o":"m 503 -10 q 446 -10 415 18 q 384 45 384 93 q 384 114 388 144 q 392 174 400 212 l 416 291 q 420 310 427 344 q 434 378 434 403 q 434 422 426 441 q 418 460 392 460 q 366 460 342 436 q 317 412 296 376 q 275 339 260 300 q 244 261 238 232 l 187 0 l 37 0 l 121 398 q 124 411 126 424 q 128 437 128 441 q 128 468 116 476 q 104 483 75 483 l 57 483 l 66 536 l 288 536 l 277 429 l 283 429 q 321 489 366 518 q 411 546 478 546 q 520 546 545 530 q 570 514 581 488 q 592 462 592 431 q 592 406 586 375 q 579 344 574 318 l 552 211 q 546 184 542 160 q 538 136 538 115 q 538 70 573 70 q 589 70 602 76 q 615 82 632 93 l 656 59 q 632 34 595 12 q 558 -10 503 -10 z"},"h":{"x_min":0,"x_max":656,"ha":656,"o":"m 487 -10 q 430 -10 399 18 q 368 45 368 93 q 368 114 372 144 q 376 174 384 212 l 401 291 q 406 310 412 344 q 419 378 419 403 q 419 422 411 441 q 403 460 377 460 q 352 460 327 436 q 302 412 281 376 q 260 339 244 300 q 229 261 223 232 l 171 0 l 21 0 l 153 622 q 156 635 158 648 q 160 661 160 665 q 160 692 148 700 q 136 707 107 707 l 86 707 l 95 760 l 337 760 l 290 540 q 286 520 279 494 q 272 468 267 448 q 262 429 262 429 l 268 429 q 306 489 351 518 q 396 546 463 546 q 506 546 530 530 q 555 514 566 488 q 577 462 577 431 q 577 406 570 375 q 564 344 559 318 l 536 211 q 530 184 526 160 q 522 136 522 115 q 522 70 557 70 q 573 70 586 76 q 599 82 616 93 l 640 59 q 616 34 579 12 q 542 -10 487 -10 z"},"z":{"x_min":0,"x_max":558,"ha":558,"o":"m 0 0 l 11 51 l 345 468 l 218 468 q 178 468 160 443 q 142 418 123 378 l 121 374 l 60 374 l 104 536 l 533 536 l 522 484 l 187 68 l 349 68 q 372 68 388 82 q 404 95 415 116 q 426 136 435 158 l 445 181 l 503 181 l 460 0 z"},"B":{"x_min":0,"x_max":672,"ha":672,"o":"m -23 0 l -12 53 l 1 53 q 32 53 58 64 q 85 74 93 113 l 190 569 q 194 588 196 600 q 199 613 199 624 q 199 646 180 654 q 160 661 129 661 l 116 661 l 127 714 l 437 714 q 552 714 612 676 q 671 638 671 564 q 671 509 650 472 q 628 434 591 411 q 554 388 508 378 l 507 374 q 561 364 595 328 q 629 291 629 228 q 629 118 556 59 q 483 0 341 0 z m 312 405 l 368 405 q 439 405 470 442 q 502 479 502 547 q 502 653 408 653 l 364 653 z m 239 61 l 308 61 q 393 61 428 106 q 464 150 464 235 q 464 343 362 343 l 299 343 z"},"K":{"x_min":0,"x_max":741,"ha":741,"o":"m -23 0 l -12 53 l 1 53 q 32 53 58 64 q 85 74 93 113 l 195 593 q 201 620 201 627 q 201 649 180 655 q 160 661 129 661 l 116 661 l 127 714 l 472 714 l 461 661 l 448 661 q 415 661 388 650 q 361 640 353 600 l 303 363 l 506 542 q 546 578 560 600 q 573 622 573 636 q 573 649 564 656 q 554 662 529 662 l 540 714 l 810 714 l 799 662 q 759 662 722 642 q 686 622 638 579 l 476 436 l 593 155 q 616 99 635 76 q 654 53 688 53 l 691 53 l 681 0 l 629 0 q 562 0 524 12 q 487 23 464 53 q 442 83 420 138 l 346 329 l 287 287 l 250 110 q 249 105 248 98 q 246 91 246 87 q 246 65 267 59 q 288 53 319 53 l 332 53 l 321 0 z"},"R":{"x_min":0,"x_max":707,"ha":707,"o":"m -23 0 l -12 53 l 1 53 q 32 53 58 64 q 85 74 93 113 l 195 593 q 201 620 201 627 q 201 649 180 655 q 160 661 129 661 l 116 661 l 127 714 l 448 714 q 686 714 686 547 q 686 480 658 438 q 631 396 590 373 q 549 350 508 341 l 577 155 q 598 98 618 76 q 638 53 672 53 l 676 53 l 665 0 l 655 0 q 586 0 540 8 q 494 17 466 42 q 439 66 424 114 l 361 310 l 292 310 l 253 127 q 246 93 246 87 q 246 65 267 59 q 288 53 319 53 l 352 53 l 341 0 z m 303 368 l 365 368 q 429 368 472 406 q 516 445 516 534 q 516 602 492 628 q 468 655 418 655 l 367 655 z"},"T":{"x_min":0,"x_max":653,"ha":653,"o":"m 104 0 l 115 53 l 128 53 q 160 53 186 64 q 212 74 220 113 l 333 653 l 253 653 q 206 653 184 630 q 163 606 149 563 l 135 520 l 68 520 l 114 714 l 736 714 l 701 520 l 634 520 q 634 524 636 542 q 638 561 640 579 q 642 597 642 600 q 642 626 626 640 q 610 653 572 653 l 492 653 l 377 110 q 376 105 374 98 q 373 91 373 87 q 373 65 394 59 q 414 53 446 53 l 459 53 l 448 0 z"},"P":{"x_min":0,"x_max":663,"ha":663,"o":"m -23 0 l -12 53 l 1 53 q 32 53 58 64 q 85 74 93 113 l 195 593 q 201 620 201 627 q 201 649 180 655 q 160 661 129 661 l 116 661 l 127 714 l 413 714 q 531 714 600 664 q 668 615 668 519 q 668 481 656 438 q 644 395 612 358 q 579 320 518 296 q 458 273 362 273 l 286 273 l 250 110 q 246 96 246 87 q 246 65 267 59 q 288 53 319 53 l 352 53 l 341 0 z m 298 331 l 340 331 q 400 331 436 354 q 473 378 489 420 q 505 462 505 516 q 505 591 472 623 q 440 655 390 655 l 368 655 z"},"|":{"x_min":0,"x_max":559,"ha":559,"o":"m 243 -240 l 243 760 l 315 760 l 315 -240 z"},"t":{"x_min":0,"x_max":417,"ha":417,"o":"m 197 -10 q 142 -10 104 19 q 67 48 67 107 q 67 125 70 148 q 73 172 77 191 l 137 468 l 60 468 l 71 519 q 114 519 170 550 q 226 582 273 659 l 331 659 l 305 536 l 426 536 l 412 468 l 290 468 l 230 194 q 225 172 222 154 q 220 136 220 122 q 220 97 234 84 q 248 72 270 72 q 293 72 312 80 q 332 88 348 98 l 371 60 q 338 32 296 11 q 255 -10 197 -10 z"},"M":{"x_min":0,"x_max":952,"ha":952,"o":"m -23 0 l -12 53 l 1 53 q 32 53 58 64 q 85 74 93 113 l 195 593 q 201 620 201 627 q 201 649 180 655 q 160 661 129 661 l 116 661 l 127 714 l 406 714 l 473 228 l 735 714 l 1024 714 l 1013 661 l 1000 661 q 968 661 941 650 q 914 640 906 600 l 803 110 q 799 96 799 87 q 799 65 820 59 q 840 53 871 53 l 884 53 l 873 0 l 532 0 l 543 53 l 556 53 q 588 53 615 64 q 642 74 650 114 l 756 615 l 425 0 l 356 0 l 275 615 l 169 118 q 167 107 166 99 q 164 91 164 87 q 164 65 185 59 q 206 53 237 53 l 240 53 l 229 0 z"},"g":{"x_min":0,"x_max":580,"ha":580,"o":"m 170 -240 q 48 -240 -5 -206 q -58 -171 -58 -113 q -58 -78 -35 -52 q -12 -25 24 -8 q 61 8 102 15 q 82 26 66 48 q 51 71 51 97 q 51 128 77 153 q 103 178 159 209 q 126 225 108 256 q 89 286 89 329 q 89 364 104 402 q 120 440 151 472 q 182 505 229 526 q 276 546 339 546 q 372 546 401 538 q 430 530 452 514 q 474 542 502 562 q 531 582 568 582 q 599 582 613 567 q 627 552 627 529 q 627 504 614 481 q 600 458 563 458 q 563 501 528 501 q 514 501 503 496 q 492 491 482 483 q 492 469 500 448 q 507 426 507 403 q 507 370 493 333 q 479 296 450 264 q 420 231 374 210 q 329 189 266 189 q 257 189 240 190 q 223 190 215 192 q 192 182 176 168 q 160 155 160 139 q 160 122 176 116 q 191 111 214 109 l 326 98 q 400 91 440 58 q 481 26 481 -38 q 481 -129 400 -184 q 318 -240 170 -240 z m 269 250 q 296 250 316 268 q 335 285 348 312 q 361 338 368 366 q 374 394 374 416 q 374 484 320 484 q 294 484 274 467 q 255 450 242 424 q 228 398 222 370 q 215 342 215 319 q 215 282 230 266 q 244 250 269 250 z m 185 -180 q 273 -180 312 -151 q 352 -122 352 -85 q 352 -56 330 -41 q 309 -26 257 -22 l 168 -14 q 124 -20 92 -46 q 61 -72 61 -106 q 61 -137 86 -158 q 112 -180 185 -180 z"},"j":{"x_min":0,"x_max":338,"ha":338,"o":"m 234 626 q 201 626 178 641 q 156 656 156 688 q 156 732 184 751 q 212 770 249 770 q 281 770 305 756 q 329 741 329 707 q 329 666 300 646 q 270 626 234 626 z m -41 -240 q -72 -240 -96 -236 q -119 -233 -140 -228 l -128 -176 q -120 -178 -107 -180 q -94 -183 -83 -183 q -52 -183 -31 -167 q -10 -151 6 -112 q 21 -74 35 -8 l 121 398 q 124 411 126 424 q 128 437 128 441 q 128 468 116 476 q 104 483 75 483 l 57 483 l 67 536 l 303 536 l 187 -8 q 169 -97 134 -148 q 100 -198 55 -219 q 10 -240 -41 -240 z"},"i":{"x_min":0,"x_max":354,"ha":354,"o":"m 234 626 q 201 626 178 641 q 156 656 156 688 q 156 732 184 751 q 212 770 249 770 q 281 770 305 756 q 329 741 329 707 q 329 666 300 646 q 270 626 234 626 z m 185 -10 q 128 -10 97 18 q 66 45 66 93 q 66 114 70 144 q 74 174 82 212 l 121 398 q 124 411 126 424 q 128 437 128 441 q 128 468 116 476 q 104 483 75 483 l 57 483 l 67 536 l 303 536 l 234 211 q 228 184 224 160 q 220 136 220 115 q 220 70 255 70 q 271 70 284 76 q 297 82 314 93 l 338 59 q 314 34 277 12 q 240 -10 185 -10 z"},"y":{"x_min":0,"x_max":586,"ha":586,"o":"m -64 -240 q -92 -240 -120 -235 q -147 -230 -168 -222 l -153 -166 q -141 -170 -120 -174 q -99 -179 -68 -179 q -7 -179 41 -158 q 89 -138 128 -103 q 168 -68 203 -26 l 78 430 q 70 460 54 472 q 38 483 9 483 l -1 483 l 11 536 l 207 536 l 273 277 q 280 251 287 214 q 294 178 299 145 q 304 112 306 95 l 309 95 q 348 148 381 202 q 414 256 434 304 q 454 353 454 391 q 454 425 438 442 q 421 460 392 460 q 392 499 415 522 q 438 546 472 546 q 512 546 533 524 q 554 501 554 461 q 554 383 504 286 q 453 189 365 67 q 311 -9 266 -66 q 220 -124 173 -162 q 126 -201 70 -220 q 13 -240 -64 -240 z"},"@":{"x_min":0,"x_max":921,"ha":921,"o":"m 458 -142 q 372 -142 297 -118 q 222 -94 165 -46 q 108 2 76 74 q 43 147 43 244 q 43 344 78 430 q 114 516 178 580 q 243 643 330 678 q 418 714 522 714 q 638 714 716 671 q 794 628 834 555 q 874 482 874 392 q 874 292 844 222 q 813 152 766 114 q 718 77 668 77 q 624 77 593 99 q 562 121 545 171 l 539 171 q 518 132 486 104 q 454 77 401 77 q 359 77 324 96 q 288 114 266 152 q 244 190 244 248 q 244 288 259 336 q 274 385 306 429 q 338 473 389 501 q 440 529 513 529 q 548 529 572 520 q 597 511 613 499 l 655 520 l 679 520 l 637 270 q 635 258 632 236 q 630 214 630 202 q 630 161 646 148 q 662 135 678 135 q 704 135 731 164 q 758 193 776 250 q 793 306 793 388 q 793 480 757 541 q 721 602 658 632 q 596 663 515 663 q 444 663 377 634 q 310 604 257 549 q 204 494 172 416 q 141 337 141 238 q 141 150 167 87 q 193 24 239 -15 q 285 -54 344 -72 q 404 -91 472 -91 q 553 -91 624 -64 q 696 -38 742 -7 l 766 -45 q 714 -85 634 -114 q 553 -142 458 -142 z m 431 135 q 460 135 478 152 q 496 170 506 197 q 516 224 522 253 l 562 457 q 556 470 540 478 q 525 485 509 485 q 471 485 444 458 q 417 432 400 392 q 383 351 375 310 q 367 268 367 238 q 367 188 384 162 q 402 135 431 135 z"},".":{"x_min":0,"x_max":304,"ha":304,"o":"m 115 -8 q 79 -8 56 10 q 34 27 34 64 q 34 104 58 129 q 81 154 121 154 q 156 154 179 136 q 202 119 202 82 q 202 32 174 12 q 146 -8 115 -8 z"},"p":{"x_min":0,"x_max":623,"ha":623,"o":"m -30 -240 l 106 398 q 109 411 111 424 q 113 437 113 441 q 113 468 100 476 q 88 483 60 483 l 42 483 l 51 536 l 266 536 l 240 403 l 247 403 q 270 445 295 478 q 320 510 354 528 q 388 546 437 546 q 503 546 543 500 q 583 453 583 365 q 583 322 570 272 q 558 221 534 171 q 509 121 472 80 q 435 39 385 14 q 335 -10 273 -10 q 243 -10 216 -4 q 190 2 171 13 q 171 13 169 -2 q 167 -18 163 -35 l 149 -102 q 146 -115 144 -128 q 142 -141 142 -145 q 142 -172 154 -180 q 166 -187 195 -187 l 233 -187 l 224 -240 z m 262 54 q 302 54 334 85 q 366 116 388 164 q 409 211 420 264 q 432 316 432 358 q 432 385 427 410 q 422 434 410 450 q 399 466 378 466 q 353 466 329 446 q 305 425 284 394 q 264 362 250 326 q 235 291 229 261 l 191 82 q 200 73 220 64 q 239 54 262 54 z"},"X":{"x_min":0,"x_max":732,"ha":732,"o":"m -42 0 l -31 53 l -21 53 q 9 53 34 68 q 58 84 97 125 l 318 353 l 206 610 q 191 644 174 652 q 156 661 128 661 l 119 661 l 130 714 l 461 714 l 450 661 l 427 661 q 380 661 380 633 q 380 615 398 573 l 451 449 l 569 575 q 582 589 593 606 q 604 622 604 636 q 604 661 556 661 l 553 661 l 564 714 l 797 714 l 786 661 l 777 661 q 748 661 725 646 q 702 630 664 590 l 476 392 l 599 106 q 612 75 630 64 q 649 53 668 53 l 681 53 l 670 0 l 340 0 l 351 53 l 366 53 q 423 53 423 88 q 423 102 418 120 q 413 137 404 157 l 343 295 l 203 150 q 185 131 174 114 q 163 97 163 83 q 163 69 174 61 q 185 53 218 53 l 221 53 l 210 0 z"},"*":{"x_min":0,"x_max":618,"ha":618,"o":"m 381 358 l 272 381 l 338 534 l 171 461 l 147 567 l 308 575 l 164 646 l 229 736 l 352 599 l 354 765 l 464 742 l 395 592 l 563 663 l 586 556 l 426 550 l 570 478 l 505 391 l 380 524 z"},"Y":{"x_min":0,"x_max":693,"ha":693,"o":"m 111 0 l 122 53 l 149 53 q 180 53 206 64 q 232 75 240 114 l 269 253 l 161 608 q 152 637 141 649 q 130 661 101 661 l 88 661 l 99 714 l 424 714 l 413 661 l 368 661 q 326 661 326 632 q 326 612 338 567 l 374 426 q 382 397 389 362 q 396 326 397 301 q 406 320 425 351 q 444 382 470 419 l 569 560 q 581 577 590 598 q 599 618 599 634 q 599 648 585 654 q 571 661 538 661 l 517 661 l 529 714 l 791 714 l 780 661 l 761 661 q 738 661 721 648 q 704 634 676 596 l 428 252 l 398 110 q 397 105 396 98 q 394 91 394 87 q 394 65 415 59 q 436 53 467 53 l 491 53 l 480 0 z"},"c":{"x_min":0,"x_max":528,"ha":528,"o":"m 261 -10 q 200 -10 150 13 q 100 36 70 82 q 40 127 40 197 q 40 252 61 313 q 82 374 124 427 q 165 480 226 513 q 288 546 369 546 q 452 546 490 514 q 528 483 528 440 q 528 409 500 382 q 472 356 406 356 q 406 409 388 448 q 369 486 333 486 q 307 486 286 466 q 264 446 246 414 q 229 381 218 342 q 206 303 200 264 q 193 226 193 195 q 193 134 221 100 q 249 66 303 66 q 356 66 389 92 q 422 118 443 148 q 449 142 454 130 q 458 119 458 104 q 458 78 438 52 q 417 25 374 8 q 330 -10 261 -10 z"},"!":{"x_min":0,"x_max":395,"ha":395,"o":"m 149 228 l 210 714 l 384 714 l 215 228 z m 158 -8 q 122 -8 100 10 q 77 27 77 64 q 77 104 100 129 q 124 154 164 154 q 198 154 222 136 q 245 119 245 82 q 245 32 218 12 q 190 -8 158 -8 z"},"/":{"x_min":0,"x_max":288,"ha":288,"o":"m -103 -121 l 323 760 l 401 760 l -25 -121 z"},"[":{"x_min":0,"x_max":414,"ha":414,"o":"m 21 -128 l 210 760 l 487 760 l 476 707 l 433 707 q 400 707 372 694 q 345 682 335 635 l 200 -3 q 197 -18 197 -28 q 197 -59 218 -67 q 238 -75 266 -75 l 309 -75 l 298 -128 z"},"6":{"x_min":0,"x_max":559,"ha":559,"o":"m 259 -10 q 202 -10 154 17 q 107 44 79 98 q 51 151 51 232 q 51 325 76 413 q 102 501 150 572 q 199 642 268 683 q 336 724 423 724 q 505 724 547 693 q 589 662 589 621 q 589 581 556 558 q 523 536 464 536 q 464 568 460 598 q 457 628 444 646 q 432 665 405 665 q 274 665 213 388 q 236 405 272 422 q 308 438 359 438 q 417 438 454 414 q 492 390 510 350 q 528 309 528 261 q 528 191 498 129 q 469 67 410 28 q 350 -10 259 -10 z m 273 55 q 307 55 332 81 q 358 107 372 152 q 387 197 387 253 q 387 313 368 345 q 350 377 313 377 q 281 377 250 360 q 220 344 200 325 q 188 252 188 200 q 188 124 211 90 q 234 55 273 55 z"},"r":{"x_min":0,"x_max":551,"ha":551,"o":"m 37 0 l 122 402 q 124 410 126 424 q 128 438 128 448 q 128 467 116 475 q 104 483 75 483 l 57 483 l 66 536 l 287 536 l 266 399 l 271 399 q 294 447 318 480 q 342 512 374 529 q 405 546 452 546 q 557 546 557 468 q 557 416 526 390 q 496 365 439 365 q 439 411 428 438 q 418 464 390 464 q 369 464 345 440 q 321 415 298 374 q 276 332 257 280 q 238 228 226 173 l 188 0 z"},"2":{"x_min":0,"x_max":559,"ha":559,"o":"m -14 0 l 7 103 l 240 300 q 308 358 344 402 q 381 447 395 486 q 409 526 409 568 q 409 609 391 636 q 373 662 339 662 q 290 662 262 613 q 234 564 230 493 q 180 493 148 514 q 115 535 115 579 q 115 618 142 651 q 169 684 222 704 q 274 724 349 724 q 452 724 506 687 q 561 650 561 585 q 561 518 506 454 q 452 390 345 303 l 105 110 l 338 110 q 370 110 390 122 q 409 134 421 153 q 433 172 442 192 l 449 210 l 508 210 l 459 0 z"},"{":{"x_min":0,"x_max":442,"ha":442,"o":"m 238 -125 q 167 -125 131 -96 q 95 -67 95 -16 q 95 -7 96 7 q 98 21 105 54 l 135 194 q 138 209 138 221 q 138 261 110 274 q 81 286 39 288 l 52 349 q 102 350 139 368 q 176 386 188 442 l 224 614 q 240 689 285 724 q 330 760 426 760 l 521 760 l 510 707 l 471 707 q 428 707 409 682 q 390 657 380 610 l 343 440 q 333 395 302 366 q 270 336 209 323 l 207 315 q 295 292 295 225 q 295 212 292 197 l 255 26 q 252 13 251 2 q 250 -9 250 -19 q 250 -44 262 -58 q 275 -72 306 -72 l 345 -72 l 333 -125 z"},"9":{"x_min":0,"x_max":559,"ha":559,"o":"m 180 -10 q 100 -10 64 20 q 28 51 28 93 q 28 126 48 144 q 69 162 106 162 q 106 136 115 111 q 124 86 142 70 q 161 53 191 53 q 264 53 311 128 q 358 203 396 343 q 370 317 334 296 q 297 275 245 275 q 165 275 122 322 q 78 368 78 441 q 78 524 117 588 q 156 652 220 688 q 284 724 360 724 q 450 724 503 673 q 556 622 556 527 q 556 469 543 398 q 530 326 502 254 q 475 183 431 123 q 387 63 324 26 q 262 -10 180 -10 z m 296 347 q 335 348 364 372 q 392 396 410 425 q 416 449 420 481 q 425 513 425 533 q 425 599 404 628 q 383 657 351 657 q 314 657 284 626 q 255 594 238 546 q 222 498 222 446 q 222 397 242 372 q 262 347 296 347 z"}," ":{"x_min":0,"x_max":260,"ha":260,"o":""},"I":{"x_min":0,"x_max":401,"ha":401,"o":"m -23 0 l -12 53 l 1 53 q 32 53 58 64 q 85 74 93 113 l 197 597 q 199 607 200 615 q 201 623 201 627 q 201 649 180 655 q 160 661 129 661 l 116 661 l 127 714 l 472 714 l 461 661 l 448 661 q 415 661 388 650 q 361 640 353 600 l 250 110 q 249 105 248 98 q 246 91 246 87 q 246 65 267 59 q 288 53 319 53 l 332 53 l 321 0 z"},"H":{"x_min":0,"x_max":819,"ha":819,"o":"m -23 0 l -12 53 l 1 53 q 32 53 58 64 q 85 74 93 113 l 195 593 q 201 620 201 627 q 201 645 186 653 q 172 661 129 661 l 116 661 l 127 714 l 472 714 l 461 661 l 448 661 q 415 661 388 650 q 361 640 353 600 l 312 403 l 573 403 l 615 597 q 620 620 620 627 q 620 644 605 652 q 590 661 547 661 l 534 661 l 545 714 l 890 714 l 879 661 l 866 661 q 834 661 807 650 q 780 640 772 600 l 669 110 q 665 96 665 87 q 665 70 680 62 q 695 53 737 53 l 750 53 l 739 0 l 394 0 l 405 53 l 418 53 q 450 53 477 64 q 504 74 512 114 l 560 342 l 299 342 l 250 110 q 246 96 246 87 q 246 68 262 60 q 278 53 319 53 l 332 53 l 321 0 z"},"4":{"x_min":0,"x_max":559,"ha":559,"o":"m 129 0 l 139 53 l 168 53 q 188 53 208 57 q 227 61 242 76 q 258 91 265 125 l 278 186 l 0 186 l 14 248 l 397 714 l 537 714 l 438 252 l 542 252 l 528 186 l 424 186 l 411 124 q 410 118 408 108 q 407 98 407 93 q 407 68 425 60 q 443 53 473 53 l 491 53 l 480 0 z m 269 469 l 92 252 l 292 252 l 329 427 q 337 467 350 520 q 363 572 377 619 q 362 596 342 568 q 323 540 304 513 q 284 486 269 469 z"},"~":{"x_min":0,"x_max":559,"ha":559,"o":"m 46 262 q 46 310 58 354 q 70 397 98 424 q 127 451 178 451 q 214 451 240 435 q 265 419 306 384 q 337 358 352 346 q 366 335 381 335 q 434 335 438 451 l 512 451 q 510 398 498 355 q 485 312 458 287 q 430 262 383 262 q 351 262 323 276 q 295 291 256 327 q 222 358 208 368 q 195 378 180 378 q 150 378 135 350 q 120 323 119 262 z"},"D":{"x_min":0,"x_max":768,"ha":768,"o":"m -24 0 l -13 53 l 1 53 q 32 53 58 64 q 85 74 93 113 l 197 604 q 201 618 201 627 q 201 649 180 655 q 160 661 129 661 l 116 661 l 127 714 l 447 714 q 590 714 670 644 q 750 575 750 442 q 750 353 722 273 q 695 193 641 132 q 587 70 508 35 q 430 0 328 0 z m 240 62 l 285 62 q 378 62 444 112 q 511 161 546 248 q 582 336 582 450 q 582 555 534 604 q 487 653 407 653 l 365 653 z"},"^":{"x_min":0,"x_max":559,"ha":559,"o":"m 46 262 l 257 714 l 300 714 l 512 262 l 434 262 l 278 605 l 124 262 z"},"0":{"x_min":0,"x_max":559,"ha":559,"o":"m 245 -11 q 152 -11 94 50 q 37 112 37 231 q 37 293 50 362 q 62 430 87 494 q 112 559 150 611 q 189 663 241 694 q 293 725 360 725 q 417 725 464 701 q 510 677 537 626 q 564 576 564 496 q 564 435 552 366 q 540 297 516 230 q 491 164 453 109 q 415 54 364 22 q 312 -11 245 -11 z m 251 57 q 286 57 314 90 q 343 122 365 174 q 387 227 402 290 q 417 354 424 416 q 432 479 432 529 q 432 594 412 626 q 392 658 355 658 q 321 658 293 626 q 265 594 242 542 q 220 489 205 426 q 190 364 182 302 q 174 239 174 188 q 174 121 195 89 q 216 57 251 57 z"},"F":{"x_min":0,"x_max":621,"ha":621,"o":"m -23 0 l -12 53 l 1 53 q 32 53 58 64 q 85 74 93 113 l 195 593 q 201 620 201 627 q 201 649 180 655 q 160 661 129 661 l 116 661 l 127 714 l 677 714 l 642 528 l 571 528 q 572 544 574 563 q 576 582 576 586 q 576 614 560 634 q 543 653 501 653 l 365 653 l 307 380 l 544 380 l 532 321 l 295 321 l 251 118 q 249 107 248 99 q 246 91 246 87 q 246 65 267 59 q 288 53 319 53 l 332 53 l 321 0 z"},"`":{"x_min":0,"x_max":334,"ha":334,"o":"m 307 606 q 278 623 246 651 q 213 679 186 708 q 158 736 144 756 l 147 766 l 294 766 q 302 742 316 714 q 329 685 344 660 q 358 634 369 619 l 366 606 z"},"k":{"x_min":0,"x_max":597,"ha":597,"o":"m 507 0 q 434 0 391 22 q 348 44 327 94 l 268 234 l 214 199 l 171 0 l 21 0 l 153 622 q 156 635 158 648 q 160 661 160 665 q 160 692 148 700 q 136 707 107 707 l 86 707 l 95 760 l 337 760 l 284 516 q 272 463 264 424 q 255 386 246 350 q 238 314 226 270 l 382 411 q 406 433 413 444 q 420 456 420 464 q 420 486 373 486 l 383 536 l 635 536 l 625 486 q 590 486 552 466 q 514 445 466 401 l 386 327 l 461 164 q 482 118 502 94 q 521 70 538 62 q 554 53 569 53 l 558 0 z"},"u":{"x_min":0,"x_max":673,"ha":673,"o":"m 504 -10 q 438 -10 412 18 q 387 46 387 86 q 387 94 388 108 q 390 122 392 130 l 384 130 q 354 88 326 57 q 297 26 262 8 q 228 -9 180 -9 q 137 -9 112 6 q 87 22 76 47 q 66 72 66 102 q 66 127 72 156 q 78 186 83 212 l 119 388 q 123 408 126 425 q 128 442 128 450 q 128 470 116 476 q 104 483 75 483 l 57 483 l 66 536 l 306 536 l 240 237 q 235 213 229 182 q 223 150 223 131 q 223 109 232 96 q 242 83 266 83 q 288 83 311 102 q 334 122 356 154 q 377 186 394 224 q 410 263 419 301 l 472 536 l 621 536 l 553 211 q 547 184 543 160 q 539 136 539 115 q 539 70 574 70 q 590 70 603 76 q 616 82 633 93 l 657 59 q 633 34 596 12 q 559 -10 504 -10 z"},"]":{"x_min":0,"x_max":414,"ha":414,"o":"m -53 -128 l -42 -75 l 1 -75 q 34 -75 61 -62 q 88 -50 98 -3 l 233 635 q 236 650 236 660 q 236 691 216 699 q 196 707 167 707 l 124 707 l 135 760 l 412 760 l 223 -128 z"},"U":{"x_min":0,"x_max":747,"ha":747,"o":"m 341 -10 q 224 -10 162 35 q 99 80 99 163 q 99 179 102 207 q 106 235 110 252 l 183 593 q 189 620 189 627 q 189 649 168 655 q 148 661 117 661 l 104 661 l 115 714 l 461 714 l 450 661 l 437 661 q 404 661 377 650 q 350 640 342 602 l 266 250 q 262 233 258 208 q 254 184 254 163 q 254 61 377 61 q 438 61 474 84 q 510 106 530 146 q 550 186 560 236 l 637 597 q 638 605 640 614 q 641 623 641 627 q 641 649 620 655 q 600 661 569 661 l 556 661 l 567 714 l 830 714 l 819 661 l 806 661 q 774 661 747 650 q 720 640 712 600 l 632 220 q 608 108 538 49 q 468 -10 341 -10 z"},"o":{"x_min":0,"x_max":618,"ha":618,"o":"m 252 -10 q 158 -10 99 42 q 40 94 40 200 q 40 256 60 316 q 80 377 120 429 q 160 481 222 514 q 284 546 368 546 q 426 546 473 524 q 520 503 548 456 q 577 410 577 336 q 577 282 558 222 q 539 162 500 109 q 460 56 398 23 q 337 -10 252 -10 z m 270 62 q 302 62 327 83 q 352 104 370 139 q 389 174 401 215 q 413 256 419 296 q 425 336 425 368 q 425 427 404 453 q 384 479 349 479 q 311 479 282 448 q 252 417 232 370 q 213 322 203 270 q 193 218 193 176 q 193 114 214 88 q 234 62 270 62 z"},"N":{"x_min":0,"x_max":788,"ha":788,"o":"m -23 0 l -12 53 l 1 53 q 32 53 58 64 q 85 74 93 113 l 195 593 q 201 620 201 627 q 201 649 180 655 q 160 661 129 661 l 116 661 l 127 714 l 349 714 l 593 201 l 677 596 q 679 607 680 615 q 682 623 682 627 q 682 649 661 655 q 640 661 609 661 l 606 661 l 617 714 l 869 714 l 858 661 l 845 661 q 814 661 788 650 q 761 640 753 601 l 626 0 l 534 0 l 263 566 l 169 118 q 167 107 166 99 q 164 91 164 87 q 164 65 185 59 q 206 53 237 53 l 240 53 l 229 0 z"},"+":{"x_min":0,"x_max":559,"ha":559,"o":"m 243 143 l 243 322 l 65 322 l 65 393 l 243 393 l 243 572 l 315 572 l 315 393 l 494 393 l 494 322 l 315 322 l 315 143 z"},"G":{"x_min":0,"x_max":796,"ha":796,"o":"m 373 -10 q 219 -10 141 62 q 63 134 63 258 q 63 355 96 440 q 130 524 191 588 q 252 652 337 688 q 422 724 526 724 q 602 724 652 707 q 703 690 728 662 q 753 635 753 605 q 753 579 734 558 q 714 537 681 524 q 648 512 608 512 q 608 575 581 618 q 554 660 495 660 q 438 660 389 626 q 340 593 304 535 q 268 477 248 402 q 227 328 227 246 q 227 163 262 110 q 297 58 378 58 q 400 58 424 62 q 449 66 467 72 l 500 220 q 506 247 506 254 q 506 276 486 282 q 466 288 434 288 l 421 288 l 432 341 l 765 341 l 754 288 l 750 288 q 717 288 692 278 q 666 267 658 227 l 620 36 q 560 13 502 2 q 444 -10 373 -10 z"},"q":{"x_min":0,"x_max":631,"ha":631,"o":"m 304 -240 l 344 -40 q 347 -25 352 0 q 358 25 364 52 q 370 79 375 102 q 380 124 382 135 l 376 135 q 353 92 328 59 q 303 26 268 8 q 234 -10 182 -10 q 119 -10 80 36 q 40 83 40 173 q 40 220 54 272 q 67 323 93 372 q 119 420 156 460 q 194 499 242 522 q 290 546 347 546 q 391 546 430 536 q 469 525 494 513 l 553 546 l 603 546 l 466 -102 q 463 -115 461 -129 q 459 -143 459 -153 q 459 -171 472 -179 q 484 -187 512 -187 l 550 -187 l 541 -240 z m 246 70 q 268 70 292 90 q 315 109 336 141 q 357 173 372 212 q 388 251 396 289 l 432 454 q 425 465 408 474 q 391 482 367 482 q 332 482 304 460 q 275 439 254 404 q 233 368 220 327 q 206 286 199 246 q 192 206 192 176 q 192 118 208 94 q 223 70 246 70 z"},"d":{"x_min":0,"x_max":665,"ha":665,"o":"m 186 -10 q 134 -10 102 15 q 70 40 55 82 q 40 124 40 173 q 40 220 53 272 q 66 323 92 372 q 117 420 154 460 q 191 499 240 522 q 288 546 347 546 q 376 546 402 539 q 428 532 448 521 q 450 534 454 554 q 457 573 459 582 l 468 622 q 475 652 475 665 q 475 692 462 700 q 450 707 422 707 l 399 707 l 408 760 l 649 760 l 533 215 q 528 192 523 162 q 518 132 518 114 q 518 91 529 80 q 540 69 553 69 q 566 69 582 76 q 597 82 609 90 l 631 51 q 605 29 565 10 q 525 -10 473 -10 q 430 -10 402 10 q 375 30 375 70 q 375 89 377 106 q 379 122 382 135 l 376 135 q 338 58 293 24 q 248 -10 186 -10 z m 246 70 q 276 70 306 102 q 336 134 361 184 q 386 234 397 288 l 432 454 q 422 468 403 475 q 384 482 366 482 q 332 482 304 461 q 277 440 256 405 q 235 370 220 328 q 206 287 199 246 q 192 205 192 172 q 192 115 208 92 q 223 70 246 70 z"},"1":{"x_min":0,"x_max":559,"ha":559,"o":"m 40 0 l 51 53 l 110 53 q 145 53 168 68 q 190 82 197 118 l 274 482 q 282 516 290 550 q 298 584 307 619 l 303 619 q 256 570 223 542 q 190 515 158 515 q 137 515 124 534 q 110 554 110 589 q 144 598 184 614 q 223 629 280 666 l 361 718 l 473 718 l 346 121 q 344 115 342 104 q 340 92 340 86 q 340 64 362 58 q 383 53 415 53 l 464 53 l 453 0 z"},"5":{"x_min":0,"x_max":559,"ha":559,"o":"m 199 -10 q 130 -10 88 6 q 47 22 28 48 q 10 75 10 107 q 10 140 32 164 q 55 187 103 187 q 104 158 112 129 q 121 100 144 80 q 168 60 212 60 q 277 60 316 105 q 356 150 356 240 q 356 304 322 336 q 287 368 235 368 q 199 368 176 361 q 152 354 132 346 l 90 367 l 192 714 l 570 714 l 541 532 l 480 532 q 481 545 482 560 q 483 574 483 580 q 483 591 472 598 q 462 605 434 605 l 231 605 l 174 418 q 192 423 216 428 q 241 434 278 434 q 382 434 444 386 q 505 338 505 247 q 505 174 468 116 q 432 58 363 24 q 294 -10 199 -10 z"}}}
